<?xml version="1.0" encoding="UTF-8" standalone="no"?>
<svg
   xmlns:dc="http://purl.org/dc/elements/1.1/"
   xmlns:cc="http://creativecommons.org/ns#"
   xmlns:rdf="http://www.w3.org/1999/02/22-rdf-syntax-ns#"
   xmlns:svg="http://www.w3.org/2000/svg"
   xmlns="http://www.w3.org/2000/svg"
   xmlns:sodipodi="http://sodipodi.sourceforge.net/DTD/sodipodi-0.dtd"
   xmlns:inkscape="http://www.inkscape.org/namespaces/inkscape"
   version="1.0"
   width="72.000000pt"
   height="72.000000pt"
   viewBox="0 0 72.000000 72.000000"
   preserveAspectRatio="xMidYMid meet"
   id="svg2"
   inkscape:version="0.48.4 r9939"
   sodipodi:docname="hunt.svg"
   inkscape:export-filename="/home/jelmer/Pictures/Happening/hunt.png"
   inkscape:export-xdpi="50"
   inkscape:export-ydpi="50">
  <defs
     id="defs20" />
  <sodipodi:namedview
     pagecolor="#ffffff"
     bordercolor="#666666"
     borderopacity="1"
     objecttolerance="10"
     gridtolerance="10"
     guidetolerance="10"
     inkscape:pageopacity="0"
     inkscape:pageshadow="2"
     inkscape:window-width="1200"
     inkscape:window-height="1892"
     id="namedview18"
     showgrid="false"
     inkscape:zoom="2.6222222"
     inkscape:cx="-18.686441"
     inkscape:cy="54.915254"
     inkscape:window-x="1280"
     inkscape:window-y="0"
     inkscape:window-maximized="1"
     inkscape:current-layer="svg2" />
  <metadata
     id="metadata4">
Created by potrace 1.10, written by Peter Selinger 2001-2011
<rdf:RDF>
  <cc:Work
     rdf:about="">
    <dc:format>image/svg+xml</dc:format>
    <dc:type
       rdf:resource="http://purl.org/dc/dcmitype/StillImage" />
    <dc:title></dc:title>
  </cc:Work>
</rdf:RDF>
</metadata>
  <g
     transform="matrix(0.68595262,0,0,0.68595262,-147.41916,-180.48429)"
     id="User-3"
     style="fill:#808080;fill-opacity:1">
    <path
       style="fill:#808080;fill-opacity:1"
       d="M 44.46875 0.28125 C 42.833731 0.28125 41.5 1.5837306 41.5 3.21875 L 41.5 8.0625 C 23.894542 9.7540098 9.8177501 23.825276 8.15625 41.4375 L 3.75 41.4375 C 2.1149805 41.4375 0.8125 42.739981 0.8125 44.375 L 0.8125 45.46875 C 0.8125 47.10377 2.1149805 48.4375 3.75 48.4375 L 8.15625 48.4375 C 9.8177501 66.049723 23.894542 80.12099 41.5 81.8125 L 41.5 86.96875 C 41.5 88.60377 42.833731 89.90625 44.46875 89.90625 L 45.53125 89.90625 C 47.16627 89.90625 48.5 88.60377 48.5 86.96875 L 48.5 81.84375 C 66.166175 80.205698 80.331738 66.092088 82 48.4375 L 86.25 48.4375 C 87.88502 48.4375 89.1875 47.103769 89.1875 45.46875 L 89.1875 44.375 C 89.1875 42.73998 87.88502 41.4375 86.25 41.4375 L 82 41.4375 C 80.328205 23.784754 66.164748 9.6671889 48.5 8.03125 L 48.5 3.21875 C 48.5 1.5837306 47.16627 0.28125 45.53125 0.28125 L 44.46875 0.28125 z M 41.5 15.65625 L 41.5 19.21875 C 41.5 20.85377 42.833731 22.15625 44.46875 22.15625 L 45.53125 22.15625 C 47.16627 22.15625 48.5 20.85377 48.5 19.21875 L 48.5 15.65625 C 62.072993 17.216176 72.841264 27.883641 74.4375 41.4375 L 70.25 41.4375 C 68.614981 41.4375 67.28125 42.73998 67.28125 44.375 L 67.28125 45.46875 C 67.28125 47.103769 68.614981 48.4375 70.25 48.4375 L 74.4375 48.4375 C 73.579821 55.660237 70.090171 62.065933 65 66.71875 C 63.875745 63.385072 58.625431 56.90625 51.6875 56.90625 C 51.203929 56.90625 51.1875 56.623324 51.1875 55.9375 C 51.1875 55.093564 51.3125 54.625 51.3125 54.625 C 52.756027 54.625 54.92069 52.221749 55.625 50 C 56.020263 48.748471 58.25 48.502658 58.25 45.1875 C 58.25 42.281976 56.96875 43.091632 56.96875 42.875 L 56.96875 38 C 56.96875 34.79366 54.124471 28.46875 45.09375 28.46875 C 36.063021 28.46875 33.1875 34.79366 33.1875 38 L 33.1875 42.875 C 33.1875 43.091632 31.90625 42.281976 31.90625 45.1875 C 31.90625 48.502658 34.135978 48.748471 34.53125 50 C 35.23556 52.221749 37.431481 54.625 38.875 54.625 C 38.875 54.625 38.96875 55.093564 38.96875 55.9375 C 38.96875 56.623324 38.951258 56.90625 38.46875 56.90625 C 31.529909 56.90625 26.279919 63.385072 25.15625 66.71875 C 20.066079 62.065933 16.601288 55.660237 15.75 48.4375 L 19.75 48.4375 C 21.385019 48.4375 22.71875 47.10377 22.71875 45.46875 L 22.71875 44.375 C 22.71875 42.739981 21.385019 41.4375 19.75 41.4375 L 15.75 41.4375 C 17.330008 27.918538 27.989811 17.267335 41.5 15.65625 z "
       transform="matrix(1.1662613,0,0,1.1662613,214.91158,263.11481)"
       id="path1048-4" />
  </g>
</svg>
